<?xml version="1.0" encoding="utf-8"?>
<!-- Generator: Adobe Illustrator 18.0.0, SVG Export Plug-In . SVG Version: 6.00 Build 0)  -->
<!DOCTYPE svg PUBLIC "-//W3C//DTD SVG 1.1//EN" "http://www.w3.org/Graphics/SVG/1.1/DTD/svg11.dtd">
<svg version="1.1" xmlns="http://www.w3.org/2000/svg" xmlns:xlink="http://www.w3.org/1999/xlink" x="0px" y="0px" width="1400px"
	 height="1400px" viewBox="0 0 1400 1400" enable-background="new 0 0 1400 1400" xml:space="preserve">
<g id="Layer_2">
	<rect fill="#4DB2AD" width="1400" height="1400"/>
	<path fill="#4FC9BD" d="M1248,143.7L1248,143.7c0-23.6-19.2-42.8-42.8-42.8H270.7c-23.6,0-42.8,19.2-42.8,42.8v0
		c0,23.6-19.2,42.8-42.8,42.8h-19.4c-23.6,0-42.8,19.2-42.8,42.8v0c0,23.6,19.2,42.8,42.8,42.8h185.2c23.6,0,42.8,19.2,42.8,42.8v0
		c0,23.6-19.2,42.8-42.8,42.8H232.5c-23.6,0-42.8,19.2-42.8,42.8v0c0,23.6,19.2,42.8,42.8,42.8h37.4c23.6,0,42.8,19.2,42.8,42.8v0
		c0,23.6-19.2,42.8-42.8,42.8h-56.6c-23.6,0-42.8,19.2-42.8,42.8v0c0,23.6,19.2,42.8,42.8,42.8h21.2c23.6,0,42.8,19.2,42.8,42.8v0
		c0,23.6-19.2,42.8-42.8,42.8h-86.9c-23.6,0-42.8,19.2-42.8,42.8v0c0,23.6,19.2,42.8,42.8,42.8h62.9c23.6,0,42.8,19.2,42.8,42.8v0
		c0,23.6,19.2,42.8,42.8,42.8h40.6c23.6,0,42.8,19.2,42.8,42.8v0c0,23.6-19.2,42.8-42.8,42.8H231.5c-23.6,0-42.8,19.2-42.8,42.8v0
		c0,23.6,19.2,42.8,42.8,42.8h14.3c23.6,0,42.8,19.2,42.8,42.8l0,0c0,23.6-19.2,42.8-42.8,42.8H181c-23.6,0-42.8,19.2-42.8,42.8v0
		c0,23.6,19.2,42.8,42.8,42.8h53.7c23.6,0,42.8,19.2,42.8,42.8v0c0,23.6,19.2,42.8,42.8,42.8h714.9c23.6,0,42.8-19.2,42.8-42.8v0
		c0-23.6,19.2-42.8,42.8-42.8h25.1c23.6,0,42.8-19.2,42.8-42.8v0c0-23.6,19.2-42.8,42.8-42.8h21c23.6,0,42.8-19.2,42.8-42.8l0,0
		c0-23.6-19.2-42.8-42.8-42.8h-79.7c-23.6,0-42.8-19.2-42.8-42.8v0c0-23.6,19.2-42.8,42.8-42.8h34.1c23.6,0,42.8-19.2,42.8-42.8v0
		c0-23.6-19.2-42.8-42.8-42.8h-21.7c-23.6,0-42.8-19.2-42.8-42.8v0c0-23.6,19.2-42.8,42.8-42.8h20c23.6,0,42.8-19.2,42.8-42.8v0
		c0-23.6-19.2-42.8-42.8-42.8h-187.2c-23.6,0-42.8-19.2-42.8-42.8v0c0-23.6,19.2-42.8,42.8-42.8h71.6c23.6,0,42.8-19.2,42.8-42.8v0
		c0-23.6,19.2-42.8,42.8-42.8h20.8c23.6,0,42.8-19.2,42.8-42.8v0c0-23.6-19.2-42.8-42.8-42.8h-81.3c-23.6,0-42.8-19.2-42.8-42.8v0
		c0-23.6,19.2-42.8,42.8-42.8h32.4c23.6,0,42.8-19.2,42.8-42.8v0c0-23.6-19.2-42.8-42.8-42.8h-125.2c-23.6,0-42.8-19.2-42.8-42.8v0
		c0-23.6,19.2-42.8,42.8-42.8h183.6C1228.9,186.5,1248,167.3,1248,143.7z"/>
</g>
<g id="Layer_1">
	<g>
		<defs>
			<rect id="SVGID_1_" width="1400" height="1400"/>
		</defs>
		<clipPath id="SVGID_2_">
			<use xlink:href="#SVGID_1_"  overflow="visible"/>
		</clipPath>
		<g clip-path="url(#SVGID_2_)">
			<g>
				<path fill="#F2625A" d="M1002.9,352.7H390.2c-29.1,0-52.7,23.6-52.7,52.7v406.7c0,47.4,2.5,94.7,7.4,141.8l13.8,132.2
					c6,57.8,54.8,101.7,112.9,101.7h450c58.1,0,106.8-43.9,112.9-101.7l13.8-132.2c4.9-47.1,7.4-94.4,7.4-141.8V405.4
					C1055.6,376.3,1032,352.7,1002.9,352.7z"/>
				<path fill="#E6E7E8" d="M893.1,770.8l-138.1-70.3v-24.1h-58.5c17,0,30.8,13.8,30.8,30.8s-13.8,30.8-30.8,30.8
					c-17,0-30.8-13.8-30.8-30.8s13.8-30.8,30.8-30.8h-58.5v24.1l-138.1,70.3l-2.5,3.1c0,0,31.4,110.2,199.1,110.2
					S895.7,774,895.7,774L893.1,770.8z"/>
				<path fill="#414042" d="M1036.7,641.7H356.4c-10.4,0-18.9-8.5-18.9-18.9v-44.9c0-10.4,8.5-18.9,18.9-18.9h680.3
					c10.4,0,18.9,8.5,18.9,18.9v44.9C1055.6,633.3,1047.2,641.7,1036.7,641.7z"/>
				<path fill="#FFFFFF" d="M367.3,559h-10.8c-10.4,0-18.9,8.5-18.9,18.9v44.9c0,10.4,8.5,18.9,18.9,18.9h10.8V559z"/>
				<path fill="#FFFFFF" d="M1025.9,641.7h10.8c10.4,0,18.9-8.5,18.9-18.9v-44.9c0-10.4-8.5-18.9-18.9-18.9h-10.8V641.7z"/>
				<path fill="#FFFFFF" d="M246,465.6c-6.6,0-12,5.4-12,12v21.6v74c0,17.5-6.4,34.5-18,47.6l-5,5.6c-2,3.1-3,6.8-3,10.5v0
					c0,10.8,8.7,19.5,19.5,19.5h6.4c13.1,0,23.7-10.6,23.7-23.7V499.2h51.4c3.5,0,6.9-1.3,9.5-3.8l9.9-9.3c2.6-2.4,6-3.8,9.5-3.8
					h18.7v-16.8H246z"/>
				<rect x="301.9" y="587.7" fill="#414042" width="35.6" height="22.9"/>
				<path fill="#F2625A" d="M306.3,624.4h-16.6c-11.4,0-20.7-9.3-20.7-20.7v-6.5c0-11.4,9.3-20.7,20.7-20.7h16.6V624.4z"/>
				<rect x="1055.6" y="590.1" fill="#414042" width="35.6" height="22.9"/>
				<path fill="#F2625A" d="M1086.8,576.4h16.6c11.4,0,20.7,9.3,20.7,20.7v6.5c0,11.4-9.3,20.7-20.7,20.7h-16.6V576.4z"/>
				<path fill="#FFFFFF" d="M1115.2,452.4l-1.1,0.9c-9.5,7.5-21.2,11.5-33.2,11.5h-44.4v21.1h58.6h41.1l0,0
					c8.9,0,16.1-7.2,16.1-16.1v-8.7c0-8.9-7.2-16.1-16.1-16.1l0,0C1128.6,445.1,1121.2,447.7,1115.2,452.4z"/>
				<g>
					<path fill="#414042" d="M392.7,955.4L392.7,955.4c0,49.9,9.8,99.2,29,145.3l4.6,11.2c8.4,20.2,28.1,33.3,49.9,33.3h442
						c21.9,0,41.6-13.2,49.9-33.3l4.6-11.2c19.1-46,29-95.4,29-145.3v0c0-12.6-10.2-22.9-22.9-22.9H415.5
						C402.9,932.6,392.7,942.8,392.7,955.4z"/>
					<g>
						<path fill="#FFFFFF" d="M427.7,989h-6c-7.1,0-12.9-5.8-12.9-12.9v-6c0-7.1,5.8-12.9,12.9-12.9h6c7.1,0,12.9,5.8,12.9,12.9v6
							C440.6,983.2,434.8,989,427.7,989z"/>
						<path fill="#FFFFFF" d="M473.1,989h-6c-7.1,0-12.9-5.8-12.9-12.9v-6c0-7.1,5.8-12.9,12.9-12.9h6c7.1,0,12.9,5.8,12.9,12.9v6
							C486,983.2,480.2,989,473.1,989z"/>
						<path fill="#FFFFFF" d="M450.4,1032.9h-6c-7.1,0-12.9-5.8-12.9-12.9v-6c0-7.1,5.8-12.9,12.9-12.9h6c7.1,0,12.9,5.8,12.9,12.9
							v6C463.3,1027.1,457.5,1032.9,450.4,1032.9z"/>
						<path fill="#FFFFFF" d="M495.8,1032.9h-6c-7.1,0-12.9-5.8-12.9-12.9v-6c0-7.1,5.8-12.9,12.9-12.9h6c7.1,0,12.9,5.8,12.9,12.9
							v6C508.7,1027.1,502.9,1032.9,495.8,1032.9z"/>
						<path fill="#FFFFFF" d="M473.1,1076.7h-6c-7.1,0-12.9-5.8-12.9-12.9v-6c0-7.1,5.8-12.9,12.9-12.9h6c7.1,0,12.9,5.8,12.9,12.9
							v6C486,1071,480.2,1076.7,473.1,1076.7z"/>
						<path fill="#FFFFFF" d="M518.5,1076.7h-6c-7.1,0-12.9-5.8-12.9-12.9v-6c0-7.1,5.8-12.9,12.9-12.9h6c7.1,0,12.9,5.8,12.9,12.9
							v6C531.4,1071,525.6,1076.7,518.5,1076.7z"/>
						<path fill="#FFFFFF" d="M563.9,1076.7h-6c-7.1,0-12.9-5.8-12.9-12.9v-6c0-7.1,5.8-12.9,12.9-12.9h6c7.1,0,12.9,5.8,12.9,12.9
							v6C576.8,1071,571.1,1076.7,563.9,1076.7z"/>
						<path fill="#FFFFFF" d="M609.4,1076.7h-6c-7.1,0-12.9-5.8-12.9-12.9v-6c0-7.1,5.8-12.9,12.9-12.9h6c7.1,0,12.9,5.8,12.9,12.9
							v6C622.3,1071,616.5,1076.7,609.4,1076.7z"/>
						<path fill="#FFFFFF" d="M654.8,1076.7h-6c-7.1,0-12.9-5.8-12.9-12.9v-6c0-7.1,5.8-12.9,12.9-12.9h6c7.1,0,12.9,5.8,12.9,12.9
							v6C667.7,1071,661.9,1076.7,654.8,1076.7z"/>
						<path fill="#FFFFFF" d="M700.2,1076.7h-6c-7.1,0-12.9-5.8-12.9-12.9v-6c0-7.1,5.8-12.9,12.9-12.9h6c7.1,0,12.9,5.8,12.9,12.9
							v6C713.1,1071,707.3,1076.7,700.2,1076.7z"/>
						<path fill="#FFFFFF" d="M745.6,1076.7h-6c-7.1,0-12.9-5.8-12.9-12.9v-6c0-7.1,5.8-12.9,12.9-12.9h6c7.1,0,12.9,5.8,12.9,12.9
							v6C758.5,1071,752.7,1076.7,745.6,1076.7z"/>
						<path fill="#FFFFFF" d="M791,1076.7h-6c-7.1,0-12.9-5.8-12.9-12.9v-6c0-7.1,5.8-12.9,12.9-12.9h6c7.1,0,12.9,5.8,12.9,12.9v6
							C803.9,1071,798.2,1076.7,791,1076.7z"/>
						<path fill="#FFFFFF" d="M836.5,1076.7h-6c-7.1,0-12.9-5.8-12.9-12.9v-6c0-7.1,5.8-12.9,12.9-12.9h6c7.1,0,12.9,5.8,12.9,12.9
							v6C849.4,1071,843.6,1076.7,836.5,1076.7z"/>
						<path fill="#FFFFFF" d="M881.9,1076.7h-6c-7.1,0-12.9-5.8-12.9-12.9v-6c0-7.1,5.8-12.9,12.9-12.9h6c7.1,0,12.9,5.8,12.9,12.9
							v6C894.8,1071,889,1076.7,881.9,1076.7z"/>
						<path fill="#FFFFFF" d="M927.3,1076.7h-6c-7.1,0-12.9-5.8-12.9-12.9v-6c0-7.1,5.8-12.9,12.9-12.9h6c7.1,0,12.9,5.8,12.9,12.9
							v6C940.2,1071,934.4,1076.7,927.3,1076.7z"/>
						<path fill="#FFFFFF" d="M495.8,1120.6h-6c-7.1,0-12.9-5.8-12.9-12.9v-6c0-7.1,5.8-12.9,12.9-12.9h6c7.1,0,12.9,5.8,12.9,12.9
							v6C508.7,1114.8,502.9,1120.6,495.8,1120.6z"/>
						<path fill="#FFFFFF" d="M541.2,1120.6h-6c-7.1,0-12.9-5.8-12.9-12.9v-6c0-7.1,5.8-12.9,12.9-12.9h6c7.1,0,12.9,5.8,12.9,12.9
							v6C554.1,1114.8,548.3,1120.6,541.2,1120.6z"/>
						<path fill="#FFFFFF" d="M586.6,1120.6h-6c-7.1,0-12.9-5.8-12.9-12.9v-6c0-7.1,5.8-12.9,12.9-12.9h6c7.1,0,12.9,5.8,12.9,12.9
							v6C599.5,1114.8,593.8,1120.6,586.6,1120.6z"/>
						<path fill="#FFFFFF" d="M632.1,1120.6h-6c-7.1,0-12.9-5.8-12.9-12.9v-6c0-7.1,5.8-12.9,12.9-12.9h6c7.1,0,12.9,5.8,12.9,12.9
							v6C645,1114.8,639.2,1120.6,632.1,1120.6z"/>
						<path fill="#FFFFFF" d="M677.5,1120.6h-6c-7.1,0-12.9-5.8-12.9-12.9v-6c0-7.1,5.8-12.9,12.9-12.9h6c7.1,0,12.9,5.8,12.9,12.9
							v6C690.4,1114.8,684.6,1120.6,677.5,1120.6z"/>
						<path fill="#FFFFFF" d="M722.9,1120.6h-6c-7.1,0-12.9-5.8-12.9-12.9v-6c0-7.1,5.8-12.9,12.9-12.9h6c7.1,0,12.9,5.8,12.9,12.9
							v6C735.8,1114.8,730,1120.6,722.9,1120.6z"/>
						<path fill="#FFFFFF" d="M768.3,1120.6h-6c-7.1,0-12.9-5.8-12.9-12.9v-6c0-7.1,5.8-12.9,12.9-12.9h6c7.1,0,12.9,5.8,12.9,12.9
							v6C781.2,1114.8,775.5,1120.6,768.3,1120.6z"/>
						<path fill="#FFFFFF" d="M813.8,1120.6h-6c-7.1,0-12.9-5.8-12.9-12.9v-6c0-7.1,5.8-12.9,12.9-12.9h6c7.1,0,12.9,5.8,12.9,12.9
							v6C826.7,1114.8,820.9,1120.6,813.8,1120.6z"/>
						<path fill="#FFFFFF" d="M859.2,1120.6h-6c-7.1,0-12.9-5.8-12.9-12.9v-6c0-7.1,5.8-12.9,12.9-12.9h6c7.1,0,12.9,5.8,12.9,12.9
							v6C872.1,1114.8,866.3,1120.6,859.2,1120.6z"/>
						<path fill="#FFFFFF" d="M904.6,1120.6h-6c-7.1,0-12.9-5.8-12.9-12.9v-6c0-7.1,5.8-12.9,12.9-12.9h6c7.1,0,12.9,5.8,12.9,12.9
							v6C917.5,1114.8,911.7,1120.6,904.6,1120.6z"/>
						<path fill="#FFFFFF" d="M541.2,1032.9h-6c-7.1,0-12.9-5.8-12.9-12.9v-6c0-7.1,5.8-12.9,12.9-12.9h6c7.1,0,12.9,5.8,12.9,12.9
							v6C554.1,1027.1,548.3,1032.9,541.2,1032.9z"/>
						<path fill="#FFFFFF" d="M586.6,1032.9h-6c-7.1,0-12.9-5.8-12.9-12.9v-6c0-7.1,5.8-12.9,12.9-12.9h6c7.1,0,12.9,5.8,12.9,12.9
							v6C599.5,1027.1,593.8,1032.9,586.6,1032.9z"/>
						<path fill="#FFFFFF" d="M632.1,1032.9h-6c-7.1,0-12.9-5.8-12.9-12.9v-6c0-7.1,5.8-12.9,12.9-12.9h6c7.1,0,12.9,5.8,12.9,12.9
							v6C645,1027.1,639.2,1032.9,632.1,1032.9z"/>
						<path fill="#FFFFFF" d="M677.5,1032.9h-6c-7.1,0-12.9-5.8-12.9-12.9v-6c0-7.1,5.8-12.9,12.9-12.9h6c7.1,0,12.9,5.8,12.9,12.9
							v6C690.4,1027.1,684.6,1032.9,677.5,1032.9z"/>
						<path fill="#FFFFFF" d="M722.9,1032.9h-6c-7.1,0-12.9-5.8-12.9-12.9v-6c0-7.1,5.8-12.9,12.9-12.9h6c7.1,0,12.9,5.8,12.9,12.9
							v6C735.8,1027.1,730,1032.9,722.9,1032.9z"/>
						<path fill="#FFFFFF" d="M768.3,1032.9h-6c-7.1,0-12.9-5.8-12.9-12.9v-6c0-7.1,5.8-12.9,12.9-12.9h6c7.1,0,12.9,5.8,12.9,12.9
							v6C781.2,1027.1,775.5,1032.9,768.3,1032.9z"/>
						<path fill="#FFFFFF" d="M813.8,1032.9h-6c-7.1,0-12.9-5.8-12.9-12.9v-6c0-7.1,5.8-12.9,12.9-12.9h6c7.1,0,12.9,5.8,12.9,12.9
							v6C826.7,1027.1,820.9,1032.9,813.8,1032.9z"/>
						<path fill="#FFFFFF" d="M859.2,1032.9h-6c-7.1,0-12.9-5.8-12.9-12.9v-6c0-7.1,5.8-12.9,12.9-12.9h6c7.1,0,12.9,5.8,12.9,12.9
							v6C872.1,1027.1,866.3,1032.9,859.2,1032.9z"/>
						<path fill="#FFFFFF" d="M904.6,1032.9h-6c-7.1,0-12.9-5.8-12.9-12.9v-6c0-7.1,5.8-12.9,12.9-12.9h6c7.1,0,12.9,5.8,12.9,12.9
							v6C917.5,1027.1,911.7,1032.9,904.6,1032.9z"/>
						<path fill="#FFFFFF" d="M950,1032.9h-6c-7.1,0-12.9-5.8-12.9-12.9v-6c0-7.1,5.8-12.9,12.9-12.9h6c7.1,0,12.9,5.8,12.9,12.9v6
							C962.9,1027.1,957.2,1032.9,950,1032.9z"/>
						<path fill="#FFFFFF" d="M518.5,989h-6c-7.1,0-12.9-5.8-12.9-12.9v-6c0-7.1,5.8-12.9,12.9-12.9h6c7.1,0,12.9,5.8,12.9,12.9v6
							C531.4,983.2,525.6,989,518.5,989z"/>
						<path fill="#FFFFFF" d="M563.9,989h-6c-7.1,0-12.9-5.8-12.9-12.9v-6c0-7.1,5.8-12.9,12.9-12.9h6c7.1,0,12.9,5.8,12.9,12.9v6
							C576.8,983.2,571.1,989,563.9,989z"/>
						<path fill="#FFFFFF" d="M609.4,989h-6c-7.1,0-12.9-5.8-12.9-12.9v-6c0-7.1,5.8-12.9,12.9-12.9h6c7.1,0,12.9,5.8,12.9,12.9v6
							C622.3,983.2,616.5,989,609.4,989z"/>
						<path fill="#FFFFFF" d="M654.8,989h-6c-7.1,0-12.9-5.8-12.9-12.9v-6c0-7.1,5.8-12.9,12.9-12.9h6c7.1,0,12.9,5.8,12.9,12.9v6
							C667.7,983.2,661.9,989,654.8,989z"/>
						<path fill="#FFFFFF" d="M700.2,989h-6c-7.1,0-12.9-5.8-12.9-12.9v-6c0-7.1,5.8-12.9,12.9-12.9h6c7.1,0,12.9,5.8,12.9,12.9v6
							C713.1,983.2,707.3,989,700.2,989z"/>
						<path fill="#FFFFFF" d="M745.6,989h-6c-7.1,0-12.9-5.8-12.9-12.9v-6c0-7.1,5.8-12.9,12.9-12.9h6c7.1,0,12.9,5.8,12.9,12.9v6
							C758.5,983.2,752.7,989,745.6,989z"/>
						<path fill="#FFFFFF" d="M791,989h-6c-7.1,0-12.9-5.8-12.9-12.9v-6c0-7.1,5.8-12.9,12.9-12.9h6c7.1,0,12.9,5.8,12.9,12.9v6
							C803.9,983.2,798.2,989,791,989z"/>
						<path fill="#FFFFFF" d="M836.5,989h-6c-7.1,0-12.9-5.8-12.9-12.9v-6c0-7.1,5.8-12.9,12.9-12.9h6c7.1,0,12.9,5.8,12.9,12.9v6
							C849.4,983.2,843.6,989,836.5,989z"/>
						<path fill="#FFFFFF" d="M881.9,989h-6c-7.1,0-12.9-5.8-12.9-12.9v-6c0-7.1,5.8-12.9,12.9-12.9h6c7.1,0,12.9,5.8,12.9,12.9v6
							C894.8,983.2,889,989,881.9,989z"/>
						<path fill="#FFFFFF" d="M927.3,989h-6c-7.1,0-12.9-5.8-12.9-12.9v-6c0-7.1,5.8-12.9,12.9-12.9h6c7.1,0,12.9,5.8,12.9,12.9v6
							C940.2,983.2,934.4,989,927.3,989z"/>
						<path fill="#FFFFFF" d="M972.7,989h-6c-7.1,0-12.9-5.8-12.9-12.9v-6c0-7.1,5.8-12.9,12.9-12.9h6c7.1,0,12.9,5.8,12.9,12.9v6
							C985.6,983.2,979.9,989,972.7,989z"/>
					</g>
				</g>
				<path fill="#414042" d="M745.8,707c0-11.6-4-22.2-10.7-30.6h-8.9c8,7.7,13,18.6,13,30.6c0,23.5-19.1,42.6-42.6,42.6
					c-23.5,0-42.6-19.1-42.6-42.6c0-12,5-22.9,13-30.6h-8.9c-6.7,8.4-10.7,19-10.7,30.6c0,27.1,22.1,49.2,49.2,49.2
					C723.7,756.2,745.8,734.2,745.8,707z"/>
				<path fill="#414042" d="M776.8,711.6l-6.5-3.3c-0.7,40.1-33.5,72.5-73.7,72.5c-40.3,0-73.1-32.4-73.7-72.5l-6.5,3.3
					c2.4,42.2,37.4,75.8,80.2,75.8C739.4,787.4,774.4,753.8,776.8,711.6z"/>
				<path fill="#F2625A" d="M800.1,723.4l-6.2-3.2c-6.5,47.9-47.6,85-97.3,85c-49.7,0-90.8-37.1-97.3-85l-6.2,3.2
					c7.9,50,51.3,88.4,103.5,88.4C748.8,811.9,792.2,773.5,800.1,723.4z"/>
				<path fill="#FFFFFF" d="M499.5,906.9h-93.4c-8.5,0-15.4-6.9-15.4-15.4v0c0-8.5,6.9-15.4,15.4-15.4h93.4
					c8.5,0,15.4,6.9,15.4,15.4v0C514.9,900,508,906.9,499.5,906.9z"/>
				<path fill="#414042" d="M696.6,676.4h-58.5v24.1l-138.1,70.3l-2.5,3.1c0,0,1.7,5.9,6.4,15l161.9-81.7
					C665.8,690.2,679.6,676.4,696.6,676.4z"/>
				<path fill="#414042" d="M696.6,676.4h58.5v24.1l138.1,70.3l2.5,3.1c0,0-1.7,5.9-6.4,15l-161.9-81.7
					C727.4,690.2,713.6,676.4,696.6,676.4z"/>
				<g>
					<rect x="356.7" y="403.7" fill="#414042" width="679.8" height="143.2"/>
					<g>
						<rect x="356.7" y="472.8" fill="#F2625A" width="679.8" height="5"/>
					</g>
					<rect x="356.7" y="403.7" fill="#FFFFFF" width="6.7" height="143.2"/>
					<rect x="360" y="540.3" fill="#FFFFFF" width="673.1" height="6.7"/>
					<rect x="1029.8" y="403.7" fill="#FFFFFF" width="6.7" height="143.2"/>
				</g>
				<polygon fill="#FFFFFF" points="442.7,191.3 442.7,641.7 950.5,641.7 950.5,330.9 950.5,249.8 950.5,191.3 				"/>
				<g>
					<path fill="#F2625A" d="M619.4,605.7h-99c-8.1,0-15.7,3.8-20.5,10.3l-20.2,27.4h127.2l18.7-25.4
						C629.3,612.9,625.7,605.7,619.4,605.7z"/>
					<path fill="#F2625A" d="M775.4,605.7h99c8.1,0,15.7,3.8,20.5,10.3l20.2,27.4H788L769.2,618
						C765.5,612.9,769.1,605.7,775.4,605.7z"/>
				</g>
				<g>
					<circle fill="#F2625A" cx="404" cy="891.5" r="3.6"/>
					<circle fill="#F2625A" cx="501.6" cy="891.5" r="3.6"/>
				</g>
				<polygon fill="#414042" points="712,641.6 710.6,641.6 709.8,641.6 709.8,709 696.6,709 696.6,709 683.3,709 683.3,641.6 
					682.6,641.6 681.1,641.6 659,641.6 659,643.5 681.1,643.5 681.1,709 681.1,710.9 683.3,710.9 696.6,710.9 696.6,710.9 
					709.8,710.9 712,710.9 712,709 712,643.5 734.2,643.5 734.2,641.6 				"/>
			</g>
			<g>
				<path fill="#FCC292" d="M239.8,1380.2c0,0,96.9-106.3,148.2-158.4c0,0,6.3-61.6,17.3-98.2c11-36.6,14.2-44.9,11-70.3
					c-3.2-25.4-5.8-44.1,3.4-60.7c9.2-16.6,18.7-8.7,22.7-4.1c3.9,4.6,0.2,34.7,6.9,47.3c6.6,12.6,12.7,10.5,18,8.7
					s7.4-12.2,6.5-32.7c-0.9-20.5,6.5-33.4,13.9-42c7.4-8.6,18.9-9,26.2-5.1c7.3,3.9,10.8,11.3,8.6,19.2
					c-2.2,7.8-12.6,28.8-13.5,40.1c-0.9,11.3,0.9,19.2,7.4,17.9c6.5-1.3,8.7-14.4,10.5-27.5c1.7-13.1,0-33.4,5.2-44.6
					c5.2-11.2,17-16.2,29.6-11.5s17,9.9,16.6,25.1c-0.4,15.3-8.7,45.8-10.9,55.8c-2.2,10-1.7,22.7,10.9,22.7
					c12.6,0,19.8-24,24.5-32.7c4.7-8.7,2.3-13.9,0-19.2c-2.3-5.2,0.7-16.1,10.8-17.4c10-1.3,17.5,1.1,27,21
					c9.6,19.9-5.2,52.1-8.9,59.6c-3.7,7.5-16.8,27.9-18.6,38.6c-1.7,10.7-0.4,21.5,4.8,19.8c5.2-1.7,12.1-15.3,25.9-22.7
					c13.8-7.4,29.1-9.2,36-2.6c7,6.5,0.1,13.1-3.6,19.6s-18.5,14.8-22.2,21.8c-3.7,7-4.6,27-11.6,34.4s-15,22.7-17.3,36.2
					c-2.3,13.5-26.7,34.9-41.5,44.4s-48.8,33.1-61,36.6c0,0-27,41-41,59.3s-46.2,68.9-46.2,68.9h-244L239.8,1380.2z"/>
				<path fill="#594A42" d="M239.8,1380.2l-48.5,47.3h244c0,0,32.2-50.5,46.2-68.9c5.8-7.6,13.9-19.2,21.4-30.2
					c-33.7-22.5-119.2-69.6-139.9-81C310.5,1302.6,239.8,1380.2,239.8,1380.2z"/>
			</g>
			<g>
				<path fill="#FCC292" d="M1160.2,1380.2c0,0-96.9-106.3-148.2-158.4c0,0-6.3-61.6-17.3-98.2c-11-36.6-14.2-44.9-11-70.3
					c3.2-25.4,5.8-44.1-3.4-60.7s-18.7-8.7-22.7-4.1c-3.9,4.6-0.2,34.7-6.9,47.3c-6.6,12.6-12.7,10.5-18,8.7
					c-5.2-1.7-7.4-12.2-6.5-32.7c0.9-20.5-6.5-33.4-13.9-42c-7.4-8.6-18.9-9-26.2-5.1c-7.3,3.9-10.8,11.3-8.6,19.2
					c2.2,7.8,12.6,28.8,13.5,40.1c0.9,11.3-0.9,19.2-7.4,17.9c-6.5-1.3-8.7-14.4-10.5-27.5c-1.7-13.1,0-33.4-5.2-44.6
					c-5.2-11.2-17-16.2-29.6-11.5s-17,9.9-16.6,25.1c0.4,15.3,8.7,45.8,10.9,55.8c2.2,10,1.7,22.7-10.9,22.7
					c-12.6,0-19.8-24-24.5-32.7c-4.7-8.7-2.3-13.9,0-19.2c2.3-5.2-0.7-16.1-10.8-17.4c-10-1.3-17.5,1.1-27,21
					c-9.6,19.9,5.2,52.1,8.9,59.6c3.7,7.5,16.8,27.9,18.6,38.6c1.7,10.7,0.4,21.5-4.8,19.8c-5.2-1.7-12.1-15.3-25.9-22.7
					c-13.8-7.4-29.1-9.2-36-2.6c-7,6.5-0.1,13.1,3.6,19.6s18.5,14.8,22.2,21.8c3.7,7,4.6,27,11.6,34.4s15,22.7,17.3,36.2
					c2.3,13.5,26.7,34.9,41.5,44.4s48.8,33.1,61,36.6c0,0,27,41,41,59.3s46.2,68.9,46.2,68.9h244L1160.2,1380.2z"/>
				<path fill="#594A42" d="M1160.2,1380.2l48.5,47.3h-244c0,0-32.2-50.5-46.2-68.9c-5.8-7.6-13.9-19.2-21.4-30.2
					c33.7-22.5,119.2-69.6,139.9-81C1089.5,1302.6,1160.2,1380.2,1160.2,1380.2z"/>
			</g>
		</g>
	</g>
</g>
<g id="Layer_3">
	<text transform="matrix(1 0 0 1 505.9375 295.6441)" font-family="'Inconsolata-Regular'" font-size="28.5" letter-spacing="5">Typewriter..</text>
	<rect x="505.9" y="347.4" fill="none" width="373.6" height="211.6"/>
	<text transform="matrix(1 0 0 1 505.9374 358.0589)"><tspan x="0" y="0" font-family="'Inconsolata-Regular'" font-size="16" letter-spacing="3">Lorem</tspan><tspan x="56" y="0" font-family="'Inconsolata-Regular'" font-size="16" letter-spacing="21"> </tspan><tspan x="85.8" y="0" font-family="'Inconsolata-Regular'" font-size="16" letter-spacing="3">ipsum</tspan><tspan x="141.8" y="0" font-family="'Inconsolata-Regular'" font-size="16" letter-spacing="21"> </tspan><tspan x="171.6" y="0" font-family="'Inconsolata-Regular'" font-size="16" letter-spacing="3">dolor</tspan><tspan x="227.6" y="0" font-family="'Inconsolata-Regular'" font-size="16" letter-spacing="21"> </tspan><tspan x="257.4" y="0" font-family="'Inconsolata-Regular'" font-size="16" letter-spacing="3">sit</tspan><tspan x="291" y="0" font-family="'Inconsolata-Regular'" font-size="16" letter-spacing="21"> </tspan><tspan x="320.8" y="0" font-family="'Inconsolata-Regular'" font-size="16" letter-spacing="3">amet, </tspan><tspan x="0" y="19.2" font-family="'Inconsolata-Regular'" font-size="16" letter-spacing="3">consectetur</tspan><tspan x="123.2" y="19.2" font-family="'Inconsolata-Regular'" font-size="16" letter-spacing="9"> </tspan><tspan x="140.5" y="19.2" font-family="'Inconsolata-Regular'" font-size="16" letter-spacing="3">adipiscing</tspan><tspan x="252.5" y="19.2" font-family="'Inconsolata-Regular'" font-size="16" letter-spacing="9"> </tspan><tspan x="269.9" y="19.2" font-family="'Inconsolata-Regular'" font-size="16" letter-spacing="3">elit,</tspan><tspan x="325.9" y="19.2" font-family="'Inconsolata-Regular'" font-size="16" letter-spacing="9"> </tspan><tspan x="343.2" y="19.2" font-family="'Inconsolata-Regular'" font-size="16" letter-spacing="3">sed </tspan><tspan x="0" y="38.4" font-family="'Inconsolata-Regular'" font-size="16" letter-spacing="3">do</tspan><tspan x="22.4" y="38.4" font-family="'Inconsolata-Regular'" font-size="16" letter-spacing="10"> </tspan><tspan x="41" y="38.4" font-family="'Inconsolata-Regular'" font-size="16" letter-spacing="3">eiusmod</tspan><tspan x="119.4" y="38.4" font-family="'Inconsolata-Regular'" font-size="16" letter-spacing="10"> </tspan><tspan x="138" y="38.4" font-family="'Inconsolata-Regular'" font-size="16" letter-spacing="3">tempor</tspan><tspan x="205.2" y="38.4" font-family="'Inconsolata-Regular'" font-size="16" letter-spacing="10"> </tspan><tspan x="223.8" y="38.4" font-family="'Inconsolata-Regular'" font-size="16" letter-spacing="3">incididunt</tspan><tspan x="335.8" y="38.4" font-family="'Inconsolata-Regular'" font-size="16" letter-spacing="10"> </tspan><tspan x="354.4" y="38.4" font-family="'Inconsolata-Regular'" font-size="16" letter-spacing="3">ut </tspan><tspan x="0" y="57.6" font-family="'Inconsolata-Regular'" font-size="16" letter-spacing="3">labore</tspan><tspan x="67.2" y="57.6" font-family="'Inconsolata-Regular'" font-size="16" letter-spacing="4"> </tspan><tspan x="79.8" y="57.6" font-family="'Inconsolata-Regular'" font-size="16" letter-spacing="3">et</tspan><tspan x="102.2" y="57.6" font-family="'Inconsolata-Regular'" font-size="16" letter-spacing="4"> </tspan><tspan x="114.9" y="57.6" font-family="'Inconsolata-Regular'" font-size="16" letter-spacing="3">dolore</tspan><tspan x="182.1" y="57.6" font-family="'Inconsolata-Regular'" font-size="16" letter-spacing="4"> </tspan><tspan x="194.7" y="57.6" font-family="'Inconsolata-Regular'" font-size="16" letter-spacing="3">magna</tspan><tspan x="250.7" y="57.6" font-family="'Inconsolata-Regular'" font-size="16" letter-spacing="4"> </tspan><tspan x="263.3" y="57.6" font-family="'Inconsolata-Regular'" font-size="16" letter-spacing="3">aliqua.</tspan><tspan x="341.7" y="57.6" font-family="'Inconsolata-Regular'" font-size="16" letter-spacing="4"> </tspan><tspan x="354.4" y="57.6" font-family="'Inconsolata-Regular'" font-size="16" letter-spacing="3">Ut </tspan><tspan x="0" y="76.8" font-family="'Inconsolata-Regular'" font-size="16" letter-spacing="3">enim</tspan><tspan x="44.8" y="76.8" font-family="'Inconsolata-Regular'" font-size="16" letter-spacing="2"> </tspan><tspan x="55.2" y="76.8" font-family="'Inconsolata-Regular'" font-size="16" letter-spacing="3">ad</tspan><tspan x="77.6" y="76.8" font-family="'Inconsolata-Regular'" font-size="16" letter-spacing="2"> </tspan><tspan x="88" y="76.8" font-family="'Inconsolata-Regular'" font-size="16" letter-spacing="3">minim</tspan><tspan x="144" y="76.8" font-family="'Inconsolata-Regular'" font-size="16" letter-spacing="2"> </tspan><tspan x="154.4" y="76.8" font-family="'Inconsolata-Regular'" font-size="16" letter-spacing="3">veniam,</tspan><tspan x="232.8" y="76.8" font-family="'Inconsolata-Regular'" font-size="16" letter-spacing="2"> </tspan><tspan x="243.2" y="76.8" font-family="'Inconsolata-Regular'" font-size="16" letter-spacing="3">quis</tspan><tspan x="288" y="76.8" font-family="'Inconsolata-Regular'" font-size="16" letter-spacing="2"> </tspan><tspan x="298.4" y="76.8" font-family="'Inconsolata-Regular'" font-size="16" letter-spacing="3">nostrud </tspan><tspan x="0" y="96" font-family="'Inconsolata-Regular'" font-size="16" letter-spacing="3">exercitation</tspan><tspan x="134.4" y="96" font-family="'Inconsolata-Regular'" font-size="16" letter-spacing="5"> </tspan><tspan x="148" y="96" font-family="'Inconsolata-Regular'" font-size="16" letter-spacing="3">ullamco</tspan><tspan x="226.4" y="96" font-family="'Inconsolata-Regular'" font-size="16" letter-spacing="5"> </tspan><tspan x="240" y="96" font-family="'Inconsolata-Regular'" font-size="16" letter-spacing="3">laboris</tspan><tspan x="318.4" y="96" font-family="'Inconsolata-Regular'" font-size="16" letter-spacing="5"> </tspan><tspan x="332" y="96" font-family="'Inconsolata-Regular'" font-size="16" letter-spacing="3">nisi </tspan><tspan x="0" y="115.2" font-family="'Inconsolata-Regular'" font-size="16" letter-spacing="3">ut</tspan><tspan x="22.4" y="115.2" font-family="'Inconsolata-Regular'" font-size="16" letter-spacing="30"> </tspan><tspan x="60.6" y="115.2" font-family="'Inconsolata-Regular'" font-size="16" letter-spacing="3">aliquip</tspan><tspan x="139" y="115.2" font-family="'Inconsolata-Regular'" font-size="16" letter-spacing="30"> </tspan><tspan x="177.2" y="115.2" font-family="'Inconsolata-Regular'" font-size="16" letter-spacing="3">ex</tspan><tspan x="199.6" y="115.2" font-family="'Inconsolata-Regular'" font-size="16" letter-spacing="30"> </tspan><tspan x="237.8" y="115.2" font-family="'Inconsolata-Regular'" font-size="16" letter-spacing="3">ea</tspan><tspan x="260.2" y="115.2" font-family="'Inconsolata-Regular'" font-size="16" letter-spacing="30"> </tspan><tspan x="298.4" y="115.2" font-family="'Inconsolata-Regular'" font-size="16" letter-spacing="3">commodo </tspan><tspan x="0" y="134.4" font-family="'Inconsolata-Regular'" font-size="16" letter-spacing="3">consequat. </tspan></text>
</g>
</svg>
